<svg id="visual" viewBox="0 0 900 600" width="900" height="600" xmlns="http://www.w3.org/2000/svg" xmlns:xlink="http://www.w3.org/1999/xlink" version="1.1"><rect x="0" y="0" width="900" height="600" fill="#bfcad2"></rect><defs><linearGradient id="grad1_0" x1="33.3%" y1="0%" x2="100%" y2="100%"><stop offset="20%" stop-color="#386ac1" stop-opacity="1"></stop><stop offset="80%" stop-color="#386ac1" stop-opacity="1"></stop></linearGradient></defs><defs><linearGradient id="grad1_1" x1="33.3%" y1="0%" x2="100%" y2="100%"><stop offset="20%" stop-color="#386ac1" stop-opacity="1"></stop><stop offset="80%" stop-color="#4579c5" stop-opacity="1"></stop></linearGradient></defs><defs><linearGradient id="grad1_2" x1="33.3%" y1="0%" x2="100%" y2="100%"><stop offset="20%" stop-color="#5587c8" stop-opacity="1"></stop><stop offset="80%" stop-color="#4579c5" stop-opacity="1"></stop></linearGradient></defs><defs><linearGradient id="grad1_3" x1="33.3%" y1="0%" x2="100%" y2="100%"><stop offset="20%" stop-color="#5587c8" stop-opacity="1"></stop><stop offset="80%" stop-color="#6796cb" stop-opacity="1"></stop></linearGradient></defs><defs><linearGradient id="grad1_4" x1="33.3%" y1="0%" x2="100%" y2="100%"><stop offset="20%" stop-color="#7ba3cd" stop-opacity="1"></stop><stop offset="80%" stop-color="#6796cb" stop-opacity="1"></stop></linearGradient></defs><defs><linearGradient id="grad1_5" x1="33.3%" y1="0%" x2="100%" y2="100%"><stop offset="20%" stop-color="#7ba3cd" stop-opacity="1"></stop><stop offset="80%" stop-color="#91b1ce" stop-opacity="1"></stop></linearGradient></defs><defs><linearGradient id="grad1_6" x1="33.3%" y1="0%" x2="100%" y2="100%"><stop offset="20%" stop-color="#a7bed0" stop-opacity="1"></stop><stop offset="80%" stop-color="#91b1ce" stop-opacity="1"></stop></linearGradient></defs><defs><linearGradient id="grad1_7" x1="33.3%" y1="0%" x2="100%" y2="100%"><stop offset="20%" stop-color="#a7bed0" stop-opacity="1"></stop><stop offset="80%" stop-color="#bfcad2" stop-opacity="1"></stop></linearGradient></defs><defs><linearGradient id="grad2_0" x1="0%" y1="0%" x2="66.7%" y2="100%"><stop offset="20%" stop-color="#386ac1" stop-opacity="1"></stop><stop offset="80%" stop-color="#386ac1" stop-opacity="1"></stop></linearGradient></defs><defs><linearGradient id="grad2_1" x1="0%" y1="0%" x2="66.7%" y2="100%"><stop offset="20%" stop-color="#4579c5" stop-opacity="1"></stop><stop offset="80%" stop-color="#386ac1" stop-opacity="1"></stop></linearGradient></defs><defs><linearGradient id="grad2_2" x1="0%" y1="0%" x2="66.7%" y2="100%"><stop offset="20%" stop-color="#4579c5" stop-opacity="1"></stop><stop offset="80%" stop-color="#5587c8" stop-opacity="1"></stop></linearGradient></defs><defs><linearGradient id="grad2_3" x1="0%" y1="0%" x2="66.7%" y2="100%"><stop offset="20%" stop-color="#6796cb" stop-opacity="1"></stop><stop offset="80%" stop-color="#5587c8" stop-opacity="1"></stop></linearGradient></defs><defs><linearGradient id="grad2_4" x1="0%" y1="0%" x2="66.7%" y2="100%"><stop offset="20%" stop-color="#6796cb" stop-opacity="1"></stop><stop offset="80%" stop-color="#7ba3cd" stop-opacity="1"></stop></linearGradient></defs><defs><linearGradient id="grad2_5" x1="0%" y1="0%" x2="66.7%" y2="100%"><stop offset="20%" stop-color="#91b1ce" stop-opacity="1"></stop><stop offset="80%" stop-color="#7ba3cd" stop-opacity="1"></stop></linearGradient></defs><defs><linearGradient id="grad2_6" x1="0%" y1="0%" x2="66.7%" y2="100%"><stop offset="20%" stop-color="#91b1ce" stop-opacity="1"></stop><stop offset="80%" stop-color="#a7bed0" stop-opacity="1"></stop></linearGradient></defs><defs><linearGradient id="grad2_7" x1="0%" y1="0%" x2="66.7%" y2="100%"><stop offset="20%" stop-color="#bfcad2" stop-opacity="1"></stop><stop offset="80%" stop-color="#a7bed0" stop-opacity="1"></stop></linearGradient></defs><g transform="translate(900, 0)"><path d="M0 486.7C-69.1 485.3 -138.3 483.9 -186.3 449.7C-234.3 415.5 -261.1 348.7 -300.5 300.5C-339.9 252.4 -391.9 223 -425 176C-458.1 129.1 -472.4 64.5 -486.7 0L0 0Z" fill="#b3c4d1"></path><path d="M0 425.9C-60.5 424.6 -121 423.4 -163 393.5C-205 363.6 -228.5 305.1 -263 263C-297.4 220.8 -342.9 195.1 -371.9 154C-400.8 112.9 -413.4 56.5 -425.9 0L0 0Z" fill="#9cb7cf"></path><path d="M0 365.1C-51.9 364 -103.7 362.9 -139.7 337.3C-175.7 311.7 -195.8 261.5 -225.4 225.4C-254.9 189.3 -293.9 167.2 -318.7 132C-343.6 96.8 -354.3 48.4 -365.1 0L0 0Z" fill="#86aacd"></path><path d="M0 304.2C-43.2 303.3 -86.4 302.4 -116.4 281.1C-146.4 259.7 -163.2 217.9 -187.8 187.8C-212.4 157.7 -244.9 139.4 -265.6 110C-286.3 80.7 -295.3 40.3 -304.2 0L0 0Z" fill="#719ccc"></path><path d="M0 243.4C-34.6 242.7 -69.1 241.9 -93.1 224.8C-117.1 207.8 -130.6 174.3 -150.3 150.3C-170 126.2 -195.9 111.5 -212.5 88C-229.1 64.5 -236.2 32.3 -243.4 0L0 0Z" fill="#5e8fca"></path><path d="M0 182.5C-25.9 182 -51.9 181.4 -69.9 168.6C-87.9 155.8 -97.9 130.7 -112.7 112.7C-127.5 94.6 -146.9 83.6 -159.4 66C-171.8 48.4 -177.2 24.2 -182.5 0L0 0Z" fill="#4d80c7"></path><path d="M0 121.7C-17.3 121.3 -34.6 121 -46.6 112.4C-58.6 103.9 -65.3 87.2 -75.1 75.1C-85 63.1 -98 55.7 -106.2 44C-114.5 32.3 -118.1 16.1 -121.7 0L0 0Z" fill="#3e72c3"></path><path d="M0 60.8C-8.6 60.7 -17.3 60.5 -23.3 56.2C-29.3 51.9 -32.6 43.6 -37.6 37.6C-42.5 31.5 -49 27.9 -53.1 22C-57.3 16.1 -59.1 8.1 -60.8 0L0 0Z" fill="#386ac1"></path></g><g transform="translate(0, 600)"><path d="M0 -486.7C59.9 -461.4 119.8 -436.1 167.6 -404.7C215.4 -373.2 251 -335.5 301.2 -301.2C351.5 -266.9 416.3 -235.9 449.7 -186.3C483.1 -136.6 484.9 -68.3 486.7 0L0 0Z" fill="#b3c4d1"></path><path d="M0 -425.9C52.4 -403.8 104.9 -381.6 146.7 -354.1C188.5 -326.5 219.6 -293.6 263.6 -263.6C307.5 -233.5 364.3 -206.4 393.5 -163C422.7 -119.5 424.3 -59.8 425.9 0L0 0Z" fill="#9cb7cf"></path><path d="M0 -365.1C44.9 -346.1 89.9 -327.1 125.7 -303.5C161.5 -279.9 188.2 -251.7 225.9 -225.9C263.6 -200.2 312.3 -176.9 337.3 -139.7C362.3 -102.5 363.7 -51.2 365.1 0L0 0Z" fill="#86aacd"></path><path d="M0 -304.2C37.5 -288.4 74.9 -272.6 104.8 -252.9C134.6 -233.2 156.9 -209.7 188.3 -188.3C219.7 -166.8 260.2 -147.5 281.1 -116.4C301.9 -85.4 303.1 -42.7 304.2 0L0 0Z" fill="#719ccc"></path><path d="M0 -243.4C30 -230.7 59.9 -218.1 83.8 -202.3C107.7 -186.6 125.5 -167.8 150.6 -150.6C175.7 -133.5 208.2 -118 224.8 -93.1C241.5 -68.3 242.5 -34.2 243.4 0L0 0Z" fill="#5e8fca"></path><path d="M0 -182.5C22.5 -173 44.9 -163.6 62.9 -151.7C80.8 -139.9 94.1 -125.8 113 -113C131.8 -100.1 156.1 -88.5 168.6 -69.9C181.1 -51.2 181.8 -25.6 182.5 0L0 0Z" fill="#4d80c7"></path><path d="M0 -121.7C15 -115.4 30 -109 41.9 -101.2C53.8 -93.3 62.7 -83.9 75.3 -75.3C87.9 -66.7 104.1 -59 112.4 -46.6C120.8 -34.2 121.2 -17.1 121.7 0L0 0Z" fill="#3e72c3"></path><path d="M0 -60.8C7.5 -57.7 15 -54.5 21 -50.6C26.9 -46.6 31.4 -41.9 37.7 -37.7C43.9 -33.4 52 -29.5 56.2 -23.3C60.4 -17.1 60.6 -8.5 60.8 0L0 0Z" fill="#386ac1"></path></g></svg>